<?xml version="1.0" standalone="no"?>
<svg xmlns:xlink="http://www.w3.org/1999/xlink" id="wave" style="transform:rotate(180deg); transition: 0.3s" viewBox="0 0 1440 100" version="1.1" xmlns="http://www.w3.org/2000/svg"><defs><linearGradient id="sw-gradient-0" x1="0" x2="0" y1="1" y2="0"><stop stop-color="rgba(255, 249, 234, 1)" offset="0%"/><stop stop-color="rgba(255, 249, 234, 1)" offset="100%"/></linearGradient></defs><path style="transform:translate(0, 0px); opacity:1" fill="url(#sw-gradient-0)" d="M0,50L60,45C120,40,240,30,360,28.3C480,27,600,33,720,40C840,47,960,53,1080,48.3C1200,43,1320,27,1440,28.3C1560,30,1680,50,1800,51.7C1920,53,2040,37,2160,33.3C2280,30,2400,40,2520,45C2640,50,2760,50,2880,43.3C3000,37,3120,23,3240,18.3C3360,13,3480,17,3600,23.3C3720,30,3840,40,3960,38.3C4080,37,4200,23,4320,18.3C4440,13,4560,17,4680,26.7C4800,37,4920,53,5040,50C5160,47,5280,23,5400,16.7C5520,10,5640,20,5760,26.7C5880,33,6000,37,6120,31.7C6240,27,6360,13,6480,18.3C6600,23,6720,47,6840,53.3C6960,60,7080,50,7200,41.7C7320,33,7440,27,7560,28.3C7680,30,7800,40,7920,43.3C8040,47,8160,43,8280,45C8400,47,8520,53,8580,56.7L8640,60L8640,100L8580,100C8520,100,8400,100,8280,100C8160,100,8040,100,7920,100C7800,100,7680,100,7560,100C7440,100,7320,100,7200,100C7080,100,6960,100,6840,100C6720,100,6600,100,6480,100C6360,100,6240,100,6120,100C6000,100,5880,100,5760,100C5640,100,5520,100,5400,100C5280,100,5160,100,5040,100C4920,100,4800,100,4680,100C4560,100,4440,100,4320,100C4200,100,4080,100,3960,100C3840,100,3720,100,3600,100C3480,100,3360,100,3240,100C3120,100,3000,100,2880,100C2760,100,2640,100,2520,100C2400,100,2280,100,2160,100C2040,100,1920,100,1800,100C1680,100,1560,100,1440,100C1320,100,1200,100,1080,100C960,100,840,100,720,100C600,100,480,100,360,100C240,100,120,100,60,100L0,100Z"/></svg>